<svg width="65" height="33" viewBox="0 0 65 33" fill="none" xmlns="http://www.w3.org/2000/svg">
<path d="M54.7324 16.4987L63.3703 6.73162L63.4135 6.68278C63.9215 6.10321 64.2531 5.38742 64.3682 4.62161C64.4834 3.8558 64.3773 3.07264 64.0626 2.36645C63.748 1.66027 63.2382 1.06117 62.5948 0.641312C61.9513 0.221457 61.2016 -0.00124785 60.436 1.96619e-05H52.2096C51.6567 0.000482268 51.11 0.117517 50.6043 0.343658C50.0986 0.569799 49.6451 0.900082 49.2727 1.31344L45.2941 5.81659L41.4121 1.43424L41.2571 1.25689L41.2088 1.20292C40.8408 0.821575 40.4009 0.518672 39.9153 0.312076C39.4296 0.105479 38.908 -0.000625746 38.3812 1.96619e-05H26.0263C25.4982 -0.00165726 24.9751 0.103947 24.4881 0.310574C24.0011 0.517201 23.56 0.820644 23.191 1.20292L23.1656 1.22862L19.1007 5.81916L15.1399 1.32115C14.7913 0.928086 14.369 0.60892 13.8976 0.382141C13.4262 0.155362 12.915 0.0254801 12.3936 1.96619e-05H3.97154C3.20609 -0.000751455 2.45673 0.222313 1.81368 0.642361C1.17062 1.06241 0.661264 1.66154 0.346928 2.36763C0.0325921 3.07372 -0.0733277 3.85667 0.0419186 4.62224C0.157165 5.38782 0.488665 6.10337 0.996515 6.68278L1.03971 6.73162L9.67768 16.4987L1.03971 26.2659L0.996515 26.3147C0.488665 26.8941 0.157165 27.6097 0.0419186 28.3752C-0.0733277 29.1408 0.0325921 29.9237 0.346928 30.6298C0.661264 31.3359 1.17062 31.9351 1.81368 32.3551C2.45673 32.7752 3.20609 32.9982 3.97154 32.9974H12.3936C13.441 32.9455 14.4252 32.475 15.1298 31.6892L19.1134 27.1809L22.9878 31.5658L23.1428 31.7431L23.191 31.7945C23.5599 32.1772 24.0009 32.481 24.4879 32.6881C24.9749 32.8951 25.4981 33.0012 26.0263 33H38.3812C38.9091 33.0015 39.4319 32.8955 39.9186 32.6884C40.4052 32.4813 40.8457 32.1773 41.2139 31.7945L41.2419 31.7688L45.2941 27.1809L49.2625 31.6737C49.6348 32.0874 50.0883 32.4181 50.5939 32.6447C51.0996 32.8713 51.6464 32.9888 52.1994 32.9897H60.4258C61.1912 32.9905 61.9406 32.7674 62.5837 32.3474C63.2267 31.9273 63.7361 31.3282 64.0504 30.6221C64.3648 29.916 64.4707 29.1331 64.3554 28.3675C64.2402 27.6019 63.9087 26.8864 63.4008 26.307L54.7324 16.4987ZM51.5185 3.37481C51.6059 3.27723 51.7125 3.19933 51.8316 3.14619C51.9507 3.09305 52.0794 3.06586 52.2096 3.06638H60.436C60.6159 3.06682 60.7919 3.11948 60.9431 3.21813C61.0944 3.31678 61.2144 3.45726 61.289 3.6229C61.3637 3.78853 61.3898 3.97235 61.3642 4.15254C61.3386 4.33273 61.2625 4.5017 61.1448 4.6394L52.6974 14.1983L47.3266 8.11958L51.5185 3.37481ZM50.6649 16.4987L45.2941 22.5775L39.9233 16.4987L45.2941 10.42L50.6649 16.4987ZM25.2591 3.47506L25.3836 3.33369C25.56 3.16563 25.7941 3.07348 26.0365 3.07666H38.3913C38.6329 3.07361 38.8662 3.16579 39.0417 3.33369L43.2718 8.11958L37.6012 14.517L37.5479 14.5787C37.5262 14.6071 37.5024 14.6337 37.4767 14.6584C37.3009 14.8342 37.0634 14.9322 36.8162 14.9309H27.5862C27.3398 14.9285 27.1042 14.8278 26.9308 14.6507C26.9067 14.6278 26.8846 14.6029 26.8647 14.5762L21.1459 8.11958L25.2591 3.47506ZM24.4969 16.4987L19.1134 22.5775L13.7426 16.4987L19.1134 10.42L24.4969 16.4987ZM3.30336 4.67281L3.27288 4.6394C3.15408 4.50206 3.07697 4.33296 3.05081 4.15239C3.02464 3.97182 3.05052 3.78745 3.12535 3.62139C3.20018 3.45533 3.32077 3.31464 3.47267 3.21619C3.62456 3.11775 3.80131 3.06573 3.9817 3.06638H12.2716C12.5065 3.08684 12.7251 3.19604 12.8839 3.37224L17.0784 8.11958L11.7076 14.1983L3.30336 4.67281ZM12.8966 29.6278C12.7369 29.8038 12.5172 29.9122 12.2818 29.9311H3.97154C3.79162 29.9313 3.61545 29.8791 3.46404 29.7808C3.31263 29.6825 3.19238 29.5422 3.11765 29.3766C3.04292 29.211 3.01686 29.0272 3.04258 28.847C3.0683 28.6669 3.14472 28.498 3.26271 28.3606L11.7076 18.8017L17.0784 24.8805L12.8966 29.6278ZM39.1662 29.525L39.0417 29.6663C38.8663 29.8345 38.633 29.9267 38.3913 29.9234H26.0263C25.7839 29.9268 25.5497 29.8346 25.3734 29.6663L21.1459 24.8805L26.7936 18.4856L26.8546 18.4162C26.8745 18.388 26.8975 18.3621 26.9232 18.3391C27.0098 18.2504 27.1131 18.1802 27.227 18.1325C27.3409 18.0849 27.463 18.0607 27.5862 18.0615H36.8213C37.0644 18.0582 37.2993 18.1503 37.4767 18.3185C37.5025 18.344 37.5263 18.3715 37.5479 18.4008L43.2616 24.8805L39.1662 29.525ZM60.4461 29.9311H52.2096C52.0795 29.9314 51.9507 29.9042 51.8317 29.8511C51.7127 29.7979 51.606 29.7201 51.5185 29.6227L47.3266 24.8805L52.6974 18.8017L61.1143 28.3272L61.1448 28.3606C61.2628 28.498 61.3392 28.6669 61.3649 28.847C61.3906 29.0272 61.3646 29.211 61.2899 29.3766C61.2151 29.5422 61.0949 29.6825 60.9435 29.7808C60.7921 29.8791 60.6159 29.9313 60.436 29.9311H60.4461Z" fill="#B1F648"/>
</svg>
