<svg width="128" height="128" viewBox="0 0 128 128" fill="none" xmlns="http://www.w3.org/2000/svg">
<rect width="128" height="128" rx="24" fill="white"/>
<rect x="0.5" y="0.5" width="127" height="127" rx="23.5" stroke="#669B18" stroke-opacity="0.2"/>
<rect x="28" y="74" width="44" height="14" rx="6" fill="#F6F6F6" stroke="black" stroke-width="4"/>
<rect x="36" y="31" width="44" height="14" rx="6" stroke="black" stroke-width="4"/>
<rect x="28" y="45" width="44" height="14" rx="6" stroke="black" stroke-width="4"/>
<rect x="34" y="59" width="44" height="14" rx="6" stroke="black" stroke-width="4"/>
<ellipse cx="76.4831" cy="72.5069" rx="23.4831" ry="23.5068" fill="#669B18" stroke="black" stroke-width="4"/>
<path d="M76.6058 87.9178C76.0123 87.9178 75.5109 87.7085 75.1016 87.2899C74.6923 86.8714 74.4876 86.3481 74.4876 85.7203V83.3972L75.4086 84.2448C74.0374 84.182 72.8504 84.0041 71.8476 83.7111C70.8447 83.4181 70.0261 83.1251 69.3917 82.8321C68.8596 82.5809 68.4809 82.2252 68.2558 81.7647C68.0512 81.3043 67.9693 80.8334 68.0102 80.352C68.0716 79.8707 68.2456 79.4312 68.5321 79.0335C68.8186 78.6359 69.187 78.3742 69.6373 78.2487C70.108 78.1022 70.6503 78.165 71.2643 78.437C71.6736 78.6672 72.2876 78.9079 73.1062 79.1591C73.9453 79.3893 74.9788 79.5044 76.2068 79.5044C77.0663 79.5044 77.7417 79.4207 78.2329 79.2533C78.7445 79.0858 79.1027 78.8661 79.3073 78.594C79.5324 78.301 79.645 77.9871 79.645 77.6522C79.645 77.3383 79.5631 77.0767 79.3994 76.8674C79.2562 76.6372 79.0106 76.4383 78.6626 76.2709C78.3147 76.0825 77.8338 75.9151 77.2198 75.7686L73.7509 75.0152C71.8476 74.5757 70.4252 73.8431 69.4838 72.8176C68.5628 71.7712 68.1023 70.4213 68.1023 68.7679C68.1023 67.5122 68.3991 66.3925 68.9926 65.4088C69.6066 64.4042 70.4559 63.588 71.5406 62.9601C72.6457 62.3323 73.9351 61.9346 75.4086 61.7672L74.4876 62.3009V60.1975C74.4876 59.5697 74.6923 59.0464 75.1016 58.6279C75.5109 58.2093 76.0123 58 76.6058 58C77.2198 58 77.7315 58.2093 78.1408 58.6279C78.5501 59.0464 78.7547 59.5697 78.7547 60.1975V62.3009L77.8338 61.7044C78.6115 61.7253 79.4506 61.8614 80.3511 62.1125C81.2516 62.3427 82.0395 62.6671 82.7149 63.0857C83.1856 63.3369 83.513 63.6822 83.6972 64.1217C83.9019 64.5612 83.9735 65.0112 83.9121 65.4716C83.8712 65.9111 83.7074 66.3088 83.4209 66.6645C83.1549 67.0203 82.7865 67.261 82.3158 67.3866C81.8655 67.4912 81.3232 67.4075 80.6888 67.1354C80.218 66.9262 79.6859 66.7587 79.0924 66.6332C78.5194 66.4867 77.7826 66.4134 76.8821 66.4134C75.7974 66.4134 74.9583 66.6122 74.3648 67.0099C73.7918 67.4075 73.5053 67.9203 73.5053 68.5481C73.5053 68.9667 73.669 69.3225 73.9965 69.6155C74.3444 69.8876 74.9686 70.1283 75.8691 70.3376L79.3687 71.1224C81.313 71.5619 82.7456 72.2944 83.6665 73.3199C84.6079 74.3245 85.0787 75.6326 85.0787 77.2441C85.0787 78.4998 84.7819 79.6091 84.1884 80.5718C83.5949 81.5345 82.766 82.3193 81.7018 82.9263C80.6581 83.5332 79.4403 83.9309 78.0487 84.1192L78.7547 83.3658V85.7203C78.7547 86.3481 78.5501 86.8714 78.1408 87.2899C77.7519 87.7085 77.2403 87.9178 76.6058 87.9178Z" fill="white"/>
</svg>
