<svg width="260" height="118" viewBox="0 0 260 118" fill="none" xmlns="http://www.w3.org/2000/svg">
<path d="M259.498 117.892C252.972 52.1762 197.526 0.851562 130.093 0.851562C87.5513 0.851562 49.7805 21.2787 26.0541 52.8596L26.0555 20.3586H0.0461426V98.3868H78.0743V72.3774L44.0608 72.3805C62.7869 44.9028 94.333 26.861 130.093 26.861C183.147 26.861 226.926 66.5735 233.326 117.895L259.498 117.892Z" fill="white" fill-opacity="0.04"/>
<path d="M130.093 1.35156C197.079 1.35156 252.187 52.1931 258.942 117.393L233.764 117.395C227.139 66.0386 183.251 26.3613 130.093 26.3613C94.1606 26.3614 62.4629 44.4903 43.6477 72.0986L43.1145 72.8809H44.0608L77.5745 72.877V97.8867H0.546143V20.8584H25.5559L25.554 52.8594V54.3574L26.4534 53.1602C50.0893 21.6996 87.715 1.35165 130.093 1.35156Z" stroke="white" stroke-opacity="0.08"/>
</svg>
