<svg width="386" height="184" viewBox="0 0 386 184" fill="none" xmlns="http://www.w3.org/2000/svg">
<g filter="url(#filter0_f_4_125)">
<path fill-rule="evenodd" clip-rule="evenodd" d="M278.248 52.5614C270.96 54.4317 263.321 55.4262 255.45 55.4262C234.1 55.4262 214.458 48.1091 198.897 35.8458C183.336 48.1091 163.695 55.4262 142.345 55.4262C133.643 55.4262 125.226 54.2109 117.253 51.9407C114.82 89.0441 116.93 148.619 139.812 178.094C164.135 209.425 186.224 224.9 196.4 229.878C197.945 230.634 199.746 230.432 201.16 229.45C222.665 214.519 263.964 177.504 273.738 136.454C280.085 109.794 280.134 78.0575 278.248 52.5614Z" fill="#B1F648"/>
<path d="M278.248 52.5614L279.245 52.4876L279.157 51.2957L277.999 51.5928L278.248 52.5614ZM198.897 35.8458L199.516 35.0604L198.897 34.5726L198.278 35.0604L198.897 35.8458ZM117.253 51.9407L117.527 50.9789L116.336 50.6399L116.255 51.8753L117.253 51.9407ZM139.812 178.094L140.602 177.481L139.812 178.094ZM196.4 229.878L196.839 228.979H196.839L196.4 229.878ZM201.16 229.45L200.59 228.629L200.59 228.629L201.16 229.45ZM273.738 136.454L272.765 136.222L273.738 136.454ZM255.45 56.4262C263.405 56.4262 271.128 55.421 278.496 53.53L277.999 51.5928C270.792 53.4424 263.236 54.4262 255.45 54.4262V56.4262ZM198.278 36.6312C214.009 49.0286 233.867 56.4262 255.45 56.4262V54.4262C234.332 54.4262 214.907 47.1897 199.516 35.0604L198.278 36.6312ZM142.345 56.4262C163.927 56.4262 183.785 49.0286 199.516 36.6312L198.278 35.0604C182.887 47.1897 163.462 54.4262 142.345 54.4262V56.4262ZM116.979 52.9025C125.04 55.1978 133.55 56.4262 142.345 56.4262V54.4262C133.737 54.4262 125.412 53.224 117.527 50.9789L116.979 52.9025ZM140.602 177.481C129.327 162.957 123.108 140.912 120.031 117.746C116.958 94.6133 117.037 70.5126 118.251 52.0061L116.255 51.8753C115.036 70.4721 114.953 94.7106 118.048 118.01C121.139 141.277 127.416 163.756 139.023 178.708L140.602 177.481ZM196.839 228.979C186.829 224.083 164.853 208.719 140.602 177.481L139.023 178.708C163.417 210.131 185.619 225.717 195.96 230.776L196.839 228.979ZM200.59 228.629C199.448 229.421 198.032 229.563 196.839 228.979L195.96 230.776C197.859 231.705 200.044 231.442 201.73 230.272L200.59 228.629ZM272.765 136.222C267.931 156.523 255.279 175.894 241.096 192.088C226.921 208.271 211.283 221.204 200.59 228.629L201.73 230.272C212.542 222.765 228.306 209.725 242.6 193.405C256.886 177.096 269.77 157.435 274.71 136.685L272.765 136.222ZM277.25 52.6352C279.134 78.0905 279.078 109.708 272.765 136.222L274.71 136.685C281.093 109.879 281.135 78.0245 279.245 52.4876L277.25 52.6352Z" fill="url(#paint0_linear_4_125)" fill-opacity="0.33"/>
</g>
<path fill-rule="evenodd" clip-rule="evenodd" d="M278.248 52.5614C270.96 54.4317 263.321 55.4262 255.45 55.4262C234.1 55.4262 214.458 48.1091 198.897 35.8458C183.336 48.1091 163.695 55.4262 142.345 55.4262C133.643 55.4262 125.226 54.2109 117.253 51.9407C114.82 89.0441 116.93 148.619 139.812 178.094C164.135 209.425 186.224 224.9 196.4 229.878C197.945 230.634 199.746 230.432 201.16 229.45C222.665 214.519 263.964 177.504 273.738 136.454C280.085 109.794 280.134 78.0575 278.248 52.5614Z" fill="#B1F648"/>
<path d="M278.248 52.5614L279.245 52.4876L279.157 51.2957L277.999 51.5928L278.248 52.5614ZM198.897 35.8458L199.516 35.0604L198.897 34.5726L198.278 35.0604L198.897 35.8458ZM117.253 51.9407L117.527 50.9789L116.336 50.6399L116.255 51.8753L117.253 51.9407ZM139.812 178.094L140.602 177.481L139.812 178.094ZM196.4 229.878L196.839 228.979H196.839L196.4 229.878ZM201.16 229.45L200.59 228.629L200.59 228.629L201.16 229.45ZM273.738 136.454L272.765 136.222L273.738 136.454ZM255.45 56.4262C263.405 56.4262 271.128 55.421 278.496 53.53L277.999 51.5928C270.792 53.4424 263.236 54.4262 255.45 54.4262V56.4262ZM198.278 36.6312C214.009 49.0286 233.867 56.4262 255.45 56.4262V54.4262C234.332 54.4262 214.907 47.1897 199.516 35.0604L198.278 36.6312ZM142.345 56.4262C163.927 56.4262 183.785 49.0286 199.516 36.6312L198.278 35.0604C182.887 47.1897 163.462 54.4262 142.345 54.4262V56.4262ZM116.979 52.9025C125.04 55.1978 133.55 56.4262 142.345 56.4262V54.4262C133.737 54.4262 125.412 53.224 117.527 50.9789L116.979 52.9025ZM140.602 177.481C129.327 162.957 123.108 140.912 120.031 117.746C116.958 94.6133 117.037 70.5126 118.251 52.0061L116.255 51.8753C115.036 70.4721 114.953 94.7106 118.048 118.01C121.139 141.277 127.416 163.756 139.023 178.708L140.602 177.481ZM196.839 228.979C186.829 224.083 164.853 208.719 140.602 177.481L139.023 178.708C163.417 210.131 185.619 225.717 195.96 230.776L196.839 228.979ZM200.59 228.629C199.448 229.421 198.032 229.563 196.839 228.979L195.96 230.776C197.859 231.705 200.044 231.442 201.73 230.272L200.59 228.629ZM272.765 136.222C267.931 156.523 255.279 175.894 241.096 192.088C226.921 208.271 211.283 221.204 200.59 228.629L201.73 230.272C212.542 222.765 228.306 209.725 242.6 193.405C256.886 177.096 269.77 157.435 274.71 136.685L272.765 136.222ZM277.25 52.6352C279.134 78.0905 279.078 109.708 272.765 136.222L274.71 136.685C281.093 109.879 281.135 78.0245 279.245 52.4876L277.25 52.6352Z" fill="url(#paint1_linear_4_125)" fill-opacity="0.33"/>
<path d="M209.496 106.401H213.479C214.579 106.401 215.47 107.292 215.47 108.392V132.289C215.47 133.389 214.579 134.281 213.479 134.281H181.616C180.516 134.281 179.625 133.389 179.625 132.289V108.392C179.625 107.292 180.516 106.401 181.616 106.401H185.599V104.409C185.599 97.8101 190.949 92.4606 197.548 92.4606C204.147 92.4606 209.496 97.8101 209.496 104.409V106.401ZM195.556 121.799V126.315H199.539V121.799C200.729 121.11 201.53 119.823 201.53 118.349C201.53 116.149 199.747 114.366 197.548 114.366C195.348 114.366 193.565 116.149 193.565 118.349C193.565 119.823 194.366 121.11 195.556 121.799ZM205.513 106.401V104.409C205.513 100.01 201.947 96.4434 197.548 96.4434C193.148 96.4434 189.582 100.01 189.582 104.409V106.401H205.513Z" fill="black"/>
<defs>
<filter id="filter0_f_4_125" x="-0.531921" y="-81.4274" width="396.862" height="428.765" filterUnits="userSpaceOnUse" color-interpolation-filters="sRGB">
<feFlood flood-opacity="0" result="BackgroundImageFix"/>
<feBlend mode="normal" in="SourceGraphic" in2="BackgroundImageFix" result="shape"/>
<feGaussianBlur stdDeviation="58" result="effect1_foregroundBlur_4_125"/>
</filter>
<linearGradient id="paint0_linear_4_125" x1="197.899" y1="35.8458" x2="197.899" y2="230.337" gradientUnits="userSpaceOnUse">
<stop stop-color="#B1F648"/>
<stop offset="1" stop-color="#B1F648" stop-opacity="0"/>
</linearGradient>
<linearGradient id="paint1_linear_4_125" x1="197.899" y1="35.8458" x2="197.899" y2="230.337" gradientUnits="userSpaceOnUse">
<stop stop-color="#B1F648"/>
<stop offset="1" stop-color="#B1F648" stop-opacity="0"/>
</linearGradient>
</defs>
</svg>
