<svg width="386" height="197" viewBox="0 0 386 197" fill="none" xmlns="http://www.w3.org/2000/svg">
<mask id="mask0_4_145" style="mask-type:alpha" maskUnits="userSpaceOnUse" x="-2" y="0" width="390" height="197">
<rect x="-1.33203" width="389" height="197" fill="url(#paint0_radial_4_145)"/>
</mask>
<g mask="url(#mask0_4_145)">
<path d="M68.0636 39.9757H-0.332031V196H388.668V39.9757H312.944L263.388 33.1627C257.774 32.391 252.083 32.3682 246.464 33.0948L206.106 38.3135C197.623 39.4105 189.006 38.7957 180.764 36.5054L176.739 35.387C168.691 33.1506 160.283 32.5113 151.99 33.505L97.9866 39.9757H68.0636Z" fill="#B1F648" fill-opacity="0.2"/>
<path d="M138.053 63.9559C138.053 61.8759 138.533 60.0625 139.493 58.5159C140.453 56.9692 141.76 55.7825 143.413 54.9559C145.093 54.1292 146.973 53.7159 149.053 53.7159C150.68 53.7159 152.2 54.0492 153.613 54.7159C155.027 55.3559 156.267 56.3159 157.333 57.5959C158.267 58.7159 158.973 60.1292 159.453 61.8359C159.933 63.5159 160.173 65.4225 160.173 67.5559C160.173 72.3025 159.24 76.1292 157.373 79.0359C155.533 81.9425 152.613 83.3959 148.613 83.3959C146.133 83.3959 144.013 82.7825 142.253 81.5559C140.52 80.3292 139.307 78.5959 138.613 76.3559L144.293 75.9959C144.667 76.7692 145.213 77.3692 145.933 77.7959C146.653 78.1959 147.493 78.3959 148.453 78.3959C149.813 78.3959 150.96 78.0092 151.893 77.2359C152.827 76.4625 153.52 75.3825 153.973 73.9959C154.453 72.5825 154.707 70.9025 154.733 68.9559L155.053 69.0759C154.36 70.4359 153.4 71.5292 152.173 72.3559C150.973 73.1559 149.44 73.5559 147.573 73.5559C145.733 73.5559 144.093 73.1559 142.653 72.3559C141.213 71.5559 140.08 70.4359 139.253 68.9959C138.453 67.5292 138.053 65.8492 138.053 63.9559ZM144.093 63.8759C144.093 64.8892 144.28 65.8092 144.653 66.6359C145.053 67.4359 145.613 68.0759 146.333 68.5559C147.053 69.0092 147.88 69.2359 148.813 69.2359C149.827 69.2359 150.707 69.0092 151.453 68.5559C152.2 68.0759 152.787 67.4359 153.213 66.6359C153.64 65.8092 153.867 64.8892 153.893 63.8759C153.92 62.8625 153.72 61.9425 153.293 61.1159C152.893 60.2625 152.32 59.6092 151.573 59.1559C150.827 58.6759 149.96 58.4359 148.973 58.4359C147.987 58.4359 147.12 58.6759 146.373 59.1559C145.653 59.6359 145.093 60.3025 144.693 61.1559C144.293 61.9825 144.093 62.8892 144.093 63.8759ZM163.055 63.9559C163.055 61.8759 163.535 60.0625 164.495 58.5159C165.455 56.9692 166.762 55.7825 168.415 54.9559C170.095 54.1292 171.975 53.7159 174.055 53.7159C175.682 53.7159 177.202 54.0492 178.615 54.7159C180.028 55.3559 181.268 56.3159 182.335 57.5959C183.268 58.7159 183.975 60.1292 184.455 61.8359C184.935 63.5159 185.175 65.4225 185.175 67.5559C185.175 72.3025 184.242 76.1292 182.375 79.0359C180.535 81.9425 177.615 83.3959 173.615 83.3959C171.135 83.3959 169.015 82.7825 167.255 81.5559C165.522 80.3292 164.308 78.5959 163.615 76.3559L169.295 75.9959C169.668 76.7692 170.215 77.3692 170.935 77.7959C171.655 78.1959 172.495 78.3959 173.455 78.3959C174.815 78.3959 175.962 78.0092 176.895 77.2359C177.828 76.4625 178.522 75.3825 178.975 73.9959C179.455 72.5825 179.708 70.9025 179.735 68.9559L180.055 69.0759C179.362 70.4359 178.402 71.5292 177.175 72.3559C175.975 73.1559 174.442 73.5559 172.575 73.5559C170.735 73.5559 169.095 73.1559 167.655 72.3559C166.215 71.5559 165.082 70.4359 164.255 68.9959C163.455 67.5292 163.055 65.8492 163.055 63.9559ZM169.095 63.8759C169.095 64.8892 169.282 65.8092 169.655 66.6359C170.055 67.4359 170.615 68.0759 171.335 68.5559C172.055 69.0092 172.882 69.2359 173.815 69.2359C174.828 69.2359 175.708 69.0092 176.455 68.5559C177.202 68.0759 177.788 67.4359 178.215 66.6359C178.642 65.8092 178.868 64.8892 178.895 63.8759C178.922 62.8625 178.722 61.9425 178.295 61.1159C177.895 60.2625 177.322 59.6092 176.575 59.1559C175.828 58.6759 174.962 58.4359 173.975 58.4359C172.988 58.4359 172.122 58.6759 171.375 59.1559C170.655 59.6359 170.095 60.3025 169.695 61.1559C169.295 61.9825 169.095 62.8892 169.095 63.8759ZM192.995 76.8359V82.7559H186.595V76.8359H192.995ZM195.167 63.9559C195.167 61.8759 195.647 60.0625 196.607 58.5159C197.567 56.9692 198.874 55.7825 200.527 54.9559C202.207 54.1292 204.087 53.7159 206.167 53.7159C207.794 53.7159 209.314 54.0492 210.727 54.7159C212.141 55.3559 213.381 56.3159 214.447 57.5959C215.381 58.7159 216.087 60.1292 216.567 61.8359C217.047 63.5159 217.287 65.4225 217.287 67.5559C217.287 72.3025 216.354 76.1292 214.487 79.0359C212.647 81.9425 209.727 83.3959 205.727 83.3959C203.247 83.3959 201.127 82.7825 199.367 81.5559C197.634 80.3292 196.421 78.5959 195.727 76.3559L201.407 75.9959C201.781 76.7692 202.327 77.3692 203.047 77.7959C203.767 78.1959 204.607 78.3959 205.567 78.3959C206.927 78.3959 208.074 78.0092 209.007 77.2359C209.941 76.4625 210.634 75.3825 211.087 73.9959C211.567 72.5825 211.821 70.9025 211.847 68.9559L212.167 69.0759C211.474 70.4359 210.514 71.5292 209.287 72.3559C208.087 73.1559 206.554 73.5559 204.687 73.5559C202.847 73.5559 201.207 73.1559 199.767 72.3559C198.327 71.5559 197.194 70.4359 196.367 68.9959C195.567 67.5292 195.167 65.8492 195.167 63.9559ZM201.207 63.8759C201.207 64.8892 201.394 65.8092 201.767 66.6359C202.167 67.4359 202.727 68.0759 203.447 68.5559C204.167 69.0092 204.994 69.2359 205.927 69.2359C206.941 69.2359 207.821 69.0092 208.567 68.5559C209.314 68.0759 209.901 67.4359 210.327 66.6359C210.754 65.8092 210.981 64.8892 211.007 63.8759C211.034 62.8625 210.834 61.9425 210.407 61.1159C210.007 60.2625 209.434 59.6092 208.687 59.1559C207.941 58.6759 207.074 58.4359 206.087 58.4359C205.101 58.4359 204.234 58.6759 203.487 59.1559C202.767 59.6359 202.207 60.3025 201.807 61.1559C201.407 61.9825 201.207 62.8892 201.207 63.8759ZM248.209 53.7159L227.489 83.2359H221.409L242.129 53.7159H248.209ZM225.969 68.1559C224.769 68.1559 223.676 67.8625 222.689 67.2759C221.702 66.6625 220.916 65.8359 220.329 64.7959C219.769 63.7292 219.489 62.5425 219.489 61.2359C219.489 59.9292 219.769 58.7559 220.329 57.7159C220.916 56.6492 221.702 55.8225 222.689 55.2359C223.676 54.6225 224.769 54.3159 225.969 54.3159C227.142 54.3159 228.222 54.6225 229.209 55.2359C230.196 55.8225 230.969 56.6492 231.529 57.7159C232.116 58.7825 232.409 59.9559 232.409 61.2359C232.409 62.5425 232.116 63.7292 231.529 64.7959C230.969 65.8359 230.196 66.6625 229.209 67.2759C228.222 67.8625 227.142 68.1559 225.969 68.1559ZM225.969 64.8759C226.689 64.8759 227.249 64.5559 227.649 63.9159C228.076 63.2759 228.289 62.3959 228.289 61.2759C228.289 60.1292 228.076 59.2359 227.649 58.5959C227.249 57.9292 226.689 57.5959 225.969 57.5959C225.222 57.5959 224.636 57.9292 224.209 58.5959C223.809 59.2359 223.609 60.1292 223.609 61.2759C223.609 62.3959 223.809 63.2759 224.209 63.9159C224.636 64.5559 225.222 64.8759 225.969 64.8759ZM243.489 82.7559C242.316 82.7559 241.236 82.4625 240.249 81.8759C239.262 81.2625 238.476 80.4225 237.889 79.3559C237.329 78.2892 237.049 77.1159 237.049 75.8359C237.049 74.5292 237.329 73.3559 237.889 72.3159C238.476 71.2492 239.262 70.4225 240.249 69.8359C241.236 69.2225 242.316 68.9159 243.489 68.9159C244.689 68.9159 245.782 69.2225 246.769 69.8359C247.756 70.4225 248.529 71.2492 249.089 72.3159C249.676 73.3559 249.969 74.5292 249.969 75.8359C249.969 77.1425 249.676 78.3292 249.089 79.3959C248.529 80.4359 247.756 81.2625 246.769 81.8759C245.782 82.4625 244.689 82.7559 243.489 82.7559ZM243.489 79.4759C244.236 79.4759 244.809 79.1559 245.209 78.5159C245.636 77.8492 245.849 76.9559 245.849 75.8359C245.849 74.6892 245.636 73.7959 245.209 73.1559C244.809 72.5159 244.249 72.1959 243.529 72.1959C242.782 72.1959 242.209 72.5159 241.809 73.1559C241.409 73.7959 241.209 74.6892 241.209 75.8359C241.209 76.9559 241.409 77.8492 241.809 78.5159C242.209 79.1559 242.769 79.4759 243.489 79.4759Z" fill="#B1F648"/>
<path d="M-0.332031 40H68.0636H97.9866L151.952 33.5141C160.27 32.5144 168.703 33.1575 176.773 35.4068L180.729 36.5094C188.993 38.8129 197.636 39.4313 206.145 38.3278L246.438 33.1015C252.074 32.3704 257.783 32.3934 263.413 33.1698L312.944 40H388.668" stroke="#B1F648" stroke-width="2" stroke-linecap="round"/>
</g>
<defs>
<radialGradient id="paint0_radial_4_145" cx="0" cy="0" r="1" gradientUnits="userSpaceOnUse" gradientTransform="translate(192.668 54.8466) rotate(90) scale(251.847 564.769)">
<stop stop-color="white"/>
<stop offset="0.59009" stop-color="white" stop-opacity="0"/>
</radialGradient>
</defs>
</svg>
