<svg width="315" height="175" viewBox="0 0 315 175" fill="none" xmlns="http://www.w3.org/2000/svg">
<mask id="mask0_4_102" style="mask-type:alpha" maskUnits="userSpaceOnUse" x="0" y="0" width="315" height="175">
<rect x="0.333374" width="314" height="174.355" fill="url(#paint0_radial_4_102)"/>
</mask>
<g mask="url(#mask0_4_102)">
<rect x="236.437" y="111.851" width="69.434" height="69.434" rx="34.717" fill="url(#paint1_linear_4_102)"/>
<path d="M271.16 161.037C263.171 161.037 256.694 154.561 256.694 146.572C256.694 138.583 263.171 132.106 271.16 132.106C279.149 132.106 285.625 138.583 285.625 146.572C285.625 154.561 279.149 161.037 271.16 161.037ZM266.097 149.465V152.358H269.713V155.251H272.606V152.358H274.053C276.05 152.358 277.669 150.739 277.669 148.741C277.669 146.744 276.05 145.125 274.053 145.125H268.267C267.867 145.125 267.543 144.801 267.543 144.402C267.543 144.002 267.867 143.679 268.267 143.679H276.223V140.786H272.606V137.892H269.713V140.786H268.267C266.269 140.786 264.65 142.405 264.65 144.402C264.65 146.399 266.269 148.018 268.267 148.018H274.053C274.452 148.018 274.776 148.342 274.776 148.741C274.776 149.141 274.452 149.465 274.053 149.465H266.097Z" fill="black"/>
<rect x="130.368" y="31.4829" width="69.434" height="69.434" rx="34.717" fill="url(#paint2_linear_4_102)"/>
<path d="M165.094 80.6696C157.105 80.6696 150.629 74.1933 150.629 66.2042C150.629 58.2153 157.105 51.7389 165.094 51.7389C173.083 51.7389 179.56 58.2153 179.56 66.2042C179.56 74.1933 173.083 80.6696 165.094 80.6696ZM160.754 67.6508V70.5438H159.308V73.4369H170.88V70.5438H163.648V67.6508H167.987V64.7577H163.648V63.3111C163.648 62.1129 164.619 61.1414 165.817 61.1414C166.581 61.1414 167.253 61.536 167.639 62.1324L170.513 61.4141C169.762 59.5579 167.943 58.2483 165.817 58.2483C163.021 58.2483 160.754 60.5151 160.754 63.3111V64.7577H159.308V67.6508H160.754Z" fill="black"/>
<rect x="20.834" y="92.7036" width="69.434" height="69.434" rx="34.717" fill="url(#paint3_linear_4_102)"/>
<path d="M55.5564 141.89C47.5673 141.89 41.0909 135.414 41.0909 127.425C41.0909 119.436 47.5673 112.96 55.5564 112.96C63.5453 112.96 70.0218 119.436 70.0218 127.425C70.0218 135.414 63.5453 141.89 55.5564 141.89ZM52.7356 125.978C53.0706 124.328 54.5301 123.085 56.2796 123.085C57.1696 123.085 57.9844 123.407 58.6144 123.94L61.0748 122.3C59.885 121.004 58.1771 120.192 56.2796 120.192C52.929 120.192 50.1697 122.724 49.8099 125.978H48.3236V128.871H49.8099C50.1697 132.126 52.929 134.658 56.2796 134.658C58.1771 134.658 59.885 133.846 61.0748 132.55L58.6142 130.91C57.9843 131.443 57.1696 131.765 56.2796 131.765C54.5301 131.765 53.0706 130.522 52.7356 128.871H59.896V125.978H52.7356Z" fill="black"/>
<path d="M287.498 167.892C280.972 102.176 225.526 50.8516 158.093 50.8516C115.551 50.8516 77.7805 71.2787 54.0541 102.86L54.0555 70.3586H28.0461V148.387H106.074V122.377L72.0608 122.381C90.7869 94.9028 122.333 76.861 158.093 76.861C211.147 76.861 254.926 116.574 261.326 167.895L287.498 167.892Z" fill="white" fill-opacity="0.04"/>
<path d="M158.093 51.3516C225.079 51.3516 280.187 102.193 286.942 167.393L261.764 167.395C255.139 116.039 211.251 76.3613 158.093 76.3613C122.161 76.3614 90.4629 94.4903 71.6477 122.099L71.1145 122.881H72.0608L105.574 122.877V147.887H28.5461V70.8584H53.5559L53.554 102.859V104.357L54.4534 103.16C78.0893 71.6996 115.715 51.3516 158.093 51.3516Z" stroke="white" stroke-opacity="0.08"/>
</g>
<defs>
<radialGradient id="paint0_radial_4_102" cx="0" cy="0" r="1" gradientUnits="userSpaceOnUse" gradientTransform="translate(156.93 48.542) rotate(90) scale(294.517 602.362)">
<stop offset="0.274493" stop-color="white"/>
<stop offset="0.442555" stop-color="white" stop-opacity="0"/>
</radialGradient>
<linearGradient id="paint1_linear_4_102" x1="271.154" y1="111.851" x2="271.154" y2="181.285" gradientUnits="userSpaceOnUse">
<stop stop-color="#B1F648"/>
<stop offset="1" stop-color="#6DB403"/>
</linearGradient>
<linearGradient id="paint2_linear_4_102" x1="165.085" y1="31.4829" x2="165.085" y2="100.917" gradientUnits="userSpaceOnUse">
<stop stop-color="#B1F648"/>
<stop offset="1" stop-color="#6DB403"/>
</linearGradient>
<linearGradient id="paint3_linear_4_102" x1="55.551" y1="92.7036" x2="55.551" y2="162.138" gradientUnits="userSpaceOnUse">
<stop stop-color="#B1F648"/>
<stop offset="1" stop-color="#6DB403"/>
</linearGradient>
</defs>
</svg>
