<svg width="128" height="128" viewBox="0 0 128 128" fill="none" xmlns="http://www.w3.org/2000/svg">
<rect width="128" height="128" rx="24" fill="white"/>
<rect x="0.5" y="0.5" width="127" height="127" rx="23.5" stroke="#669B18" stroke-opacity="0.2"/>
<path d="M59.9978 32.3951C53.0759 32.4732 46.3326 34.6022 40.6207 38.5128C34.9087 42.4234 30.4847 47.9399 27.908 54.3649C25.3313 60.7898 24.7177 67.8345 26.1447 74.6081C27.5718 81.3818 30.9754 87.5802 35.9252 92.4194C40.8749 97.2587 47.1486 100.522 53.9527 101.795C60.7569 103.069 67.7859 102.296 74.151 99.5754C80.5161 96.8543 85.9314 92.3068 89.712 86.5081C93.4927 80.7093 95.4688 73.9196 95.3907 66.9977L60.3929 67.3929L59.9978 32.3951Z" fill="white" stroke="black" stroke-width="4"/>
<path d="M67.9978 25.3951C72.5938 25.3432 77.155 26.1971 81.4209 27.9079C85.6869 29.6188 89.5742 32.1532 92.8607 35.3663C96.1472 38.5795 98.7687 42.4085 100.575 46.6348C102.382 50.861 103.339 55.4018 103.391 59.9977L68.3929 60.3929L67.9978 25.3951Z" fill="#B1F648" stroke="black" stroke-width="4"/>
</svg>
