<svg width="128" height="128" viewBox="0 0 128 128" fill="none" xmlns="http://www.w3.org/2000/svg">
<rect width="128" height="128" rx="24" fill="white"/>
<rect x="0.5" y="0.5" width="127" height="127" rx="23.5" stroke="#669B18" stroke-opacity="0.2"/>
<path d="M94.9214 54.9177C94.9214 67.9002 84.4076 78.4246 71.4382 78.4246C58.4688 78.4246 47.9551 67.9002 47.9551 54.9177C47.9551 41.9353 58.4688 31.4109 71.4382 31.4109C84.4076 31.4109 94.9214 41.9353 94.9214 54.9177Z" fill="#669B18" stroke="black" stroke-width="4"/>
<ellipse cx="56.4944" cy="74.1507" rx="23.4831" ry="23.5068" fill="white" stroke="black" stroke-width="4"/>
<path d="M56.5609 89.1095C55.9674 89.1095 55.466 88.9002 55.0567 88.4816C54.6474 88.063 54.4427 87.5398 54.4427 86.9119V84.5888L55.3637 85.4364C53.9925 85.3737 52.8055 85.1958 51.8026 84.9028C50.7998 84.6098 49.9812 84.3167 49.3467 84.0237C48.8146 83.7726 48.436 83.4168 48.2109 82.9564C48.0062 82.4959 47.9244 82.025 47.9653 81.5437C48.0267 81.0623 48.2007 80.6228 48.4872 80.2252C48.7737 79.8275 49.1421 79.5659 49.5923 79.4403C50.063 79.2938 50.6054 79.3566 51.2194 79.6287C51.6287 79.8589 52.2426 80.0996 53.0613 80.3507C53.9004 80.5809 54.9339 80.6961 56.1618 80.6961C57.0214 80.6961 57.6968 80.6123 58.1879 80.4449C58.6996 80.2775 59.0577 80.0577 59.2624 79.7856C59.4875 79.4926 59.6001 79.1787 59.6001 78.8438C59.6001 78.5299 59.5182 78.2683 59.3545 78.059C59.2112 77.8288 58.9656 77.63 58.6177 77.4625C58.2698 77.2742 57.7889 77.1068 57.1749 76.9603L53.7059 76.2068C51.8026 75.7673 50.3803 75.0348 49.4388 74.0093C48.5179 72.9628 48.0574 71.6129 48.0574 69.9595C48.0574 68.7038 48.3542 67.5841 48.9477 66.6005C49.5616 65.5959 50.411 64.7797 51.4957 64.1518C52.6008 63.5239 53.8901 63.1263 55.3637 62.9588L54.4427 63.4925V61.3892C54.4427 60.7613 54.6474 60.2381 55.0567 59.8195C55.466 59.4009 55.9674 59.1917 56.5609 59.1917C57.1749 59.1917 57.6865 59.4009 58.0958 59.8195C58.5052 60.2381 58.7098 60.7613 58.7098 61.3892V63.4925L57.7889 62.8961C58.5666 62.917 59.4057 63.053 60.3061 63.3042C61.2066 63.5344 61.9946 63.8588 62.6699 64.2774C63.1406 64.5285 63.4681 64.8738 63.6523 65.3133C63.857 65.7528 63.9286 66.2028 63.8672 66.6633C63.8263 67.1028 63.6625 67.5004 63.376 67.8562C63.11 68.212 62.7416 68.4527 62.2709 68.5782C61.8206 68.6829 61.2783 68.5992 60.6438 68.3271C60.1731 68.1178 59.641 67.9504 59.0475 67.8248C58.4745 67.6783 57.7377 67.6051 56.8372 67.6051C55.7525 67.6051 54.9134 67.8039 54.3199 68.2015C53.7469 68.5992 53.4604 69.1119 53.4604 69.7398C53.4604 70.1584 53.6241 70.5142 53.9515 70.8072C54.2995 71.0792 54.9237 71.3199 55.8242 71.5292L59.3238 72.314C61.268 72.7536 62.7006 73.4861 63.6216 74.5116C64.563 75.5162 65.0337 76.8242 65.0337 78.4357C65.0337 79.6915 64.737 80.8007 64.1435 81.7634C63.55 82.7262 62.7211 83.511 61.6569 84.1179C60.6131 84.7249 59.3954 85.1225 58.0038 85.3109L58.7098 84.5574V86.9119C58.7098 87.5398 58.5052 88.063 58.0958 88.4816C57.707 88.9002 57.1954 89.1095 56.5609 89.1095Z" fill="black"/>
<path d="M39.7618 28.5519C40.5425 27.7704 40.5425 26.5035 39.7618 25.722C38.9812 24.9406 37.7155 24.9406 36.9348 25.722L39.7618 28.5519ZM17.1359 46.3698C17.1359 47.475 18.0308 48.3708 19.1348 48.3708L37.1258 48.3708C38.2298 48.3708 39.1248 47.475 39.1248 46.3698C39.1248 45.2647 38.2298 44.3688 37.1258 44.3688L21.1338 44.3688L21.1338 28.3608C21.1338 27.2556 20.2389 26.3598 19.1348 26.3598C18.0308 26.3598 17.1359 27.2556 17.1359 28.3608L17.1359 46.3698ZM36.9348 25.722L17.7213 44.9549L20.5483 47.7848L39.7618 28.5519L36.9348 25.722Z" fill="black"/>
<path d="M89.2382 99.4481C88.4575 100.23 88.4575 101.497 89.2382 102.278C90.0188 103.059 91.2845 103.059 92.0652 102.278L89.2382 99.4481ZM111.864 81.6302C111.864 80.525 110.969 79.6292 109.865 79.6292L91.8742 79.6292C90.7702 79.6292 89.8752 80.525 89.8752 81.6302C89.8752 82.7353 90.7702 83.6312 91.8742 83.6312L107.866 83.6312L107.866 99.6392C107.866 100.744 108.761 101.64 109.865 101.64C110.969 101.64 111.864 100.744 111.864 99.6392L111.864 81.6302ZM92.0652 102.278L111.279 83.0451L108.452 80.2152L89.2382 99.4481L92.0652 102.278Z" fill="black"/>
</svg>
