<svg width="128" height="128" viewBox="0 0 128 128" fill="none" xmlns="http://www.w3.org/2000/svg">
<rect width="128" height="128" rx="24" fill="white"/>
<rect x="0.5" y="0.5" width="127" height="127" rx="23.5" stroke="#669B18" stroke-opacity="0.2"/>
<rect x="27" y="36" width="58" height="40" rx="6" fill="#669B18" stroke="black" stroke-width="4"/>
<rect x="43" y="53" width="58" height="40" rx="6" fill="white" stroke="black" stroke-width="4"/>
<path d="M71.6058 87.9178C71.0123 87.9178 70.5109 87.7085 70.1016 87.2899C69.6923 86.8714 69.4876 86.3481 69.4876 85.7203V83.3972L70.4086 84.2448C69.0374 84.182 67.8504 84.0041 66.8476 83.7111C65.8447 83.4181 65.0261 83.1251 64.3917 82.8321C63.8596 82.5809 63.4809 82.2252 63.2558 81.7647C63.0512 81.3043 62.9693 80.8334 63.0102 80.352C63.0716 79.8707 63.2456 79.4312 63.5321 79.0335C63.8186 78.6359 64.187 78.3742 64.6373 78.2487C65.108 78.1022 65.6503 78.165 66.2643 78.437C66.6736 78.6672 67.2876 78.9079 68.1062 79.1591C68.9453 79.3893 69.9788 79.5044 71.2068 79.5044C72.0663 79.5044 72.7417 79.4207 73.2329 79.2533C73.7445 79.0858 74.1027 78.8661 74.3073 78.594C74.5324 78.301 74.645 77.9871 74.645 77.6522C74.645 77.3383 74.5631 77.0767 74.3994 76.8674C74.2562 76.6372 74.0106 76.4383 73.6626 76.2709C73.3147 76.0825 72.8338 75.9151 72.2198 75.7686L68.7509 75.0152C66.8476 74.5757 65.4252 73.8431 64.4838 72.8176C63.5628 71.7712 63.1023 70.4213 63.1023 68.7679C63.1023 67.5122 63.3991 66.3925 63.9926 65.4088C64.6066 64.4042 65.4559 63.588 66.5406 62.9601C67.6457 62.3323 68.9351 61.9346 70.4086 61.7672L69.4876 62.3009V60.1975C69.4876 59.5697 69.6923 59.0464 70.1016 58.6279C70.5109 58.2093 71.0123 58 71.6058 58C72.2198 58 72.7315 58.2093 73.1408 58.6279C73.5501 59.0464 73.7547 59.5697 73.7547 60.1975V62.3009L72.8338 61.7044C73.6115 61.7253 74.4506 61.8614 75.3511 62.1125C76.2516 62.3427 77.0395 62.6671 77.7149 63.0857C78.1856 63.3369 78.513 63.6822 78.6972 64.1217C78.9019 64.5612 78.9735 65.0112 78.9121 65.4716C78.8712 65.9111 78.7074 66.3088 78.4209 66.6645C78.1549 67.0203 77.7865 67.261 77.3158 67.3866C76.8655 67.4912 76.3232 67.4075 75.6888 67.1354C75.218 66.9262 74.6859 66.7587 74.0924 66.6332C73.5194 66.4867 72.7826 66.4134 71.8821 66.4134C70.7974 66.4134 69.9583 66.6122 69.3648 67.0099C68.7918 67.4075 68.5053 67.9203 68.5053 68.5481C68.5053 68.9667 68.669 69.3225 68.9965 69.6155C69.3444 69.8876 69.9686 70.1283 70.8691 70.3376L74.3687 71.1224C76.313 71.5619 77.7456 72.2944 78.6665 73.3199C79.6079 74.3245 80.0787 75.6326 80.0787 77.2441C80.0787 78.4998 79.7819 79.609 79.1884 80.5718C78.5949 81.5345 77.766 82.3193 76.7018 82.9263C75.6581 83.5332 74.4403 83.9309 73.0487 84.1192L73.7547 83.3658V85.7203C73.7547 86.3481 73.5501 86.8714 73.1408 87.2899C72.7519 87.7085 72.2403 87.9178 71.6058 87.9178Z" fill="black"/>
</svg>
