<svg xmlns="http://www.w3.org/2000/svg" viewBox="0 0 253.51 128.39"><g id="Layer_2" data-name="Layer 2"><g id="Layer_1-2" data-name="Layer 1"><path d="M215.43,64.19l34-38,.17-.19A15.63,15.63,0,0,0,237.88,0H205.5a15.66,15.66,0,0,0-11.56,5.11L178.28,22.63,163,5.58l-.61-.69-.19-.21A15.53,15.53,0,0,0,151.07,0H102.44A15.53,15.53,0,0,0,91.28,4.68l-.1.1-16,17.86L59.59,5.14l0,0A15.53,15.53,0,0,0,48.78,0H15.63A15.63,15.63,0,0,0,3.92,26l.17.19,34,38-34,38-.17.19a15.63,15.63,0,0,0,11.71,26H48.78a15.57,15.57,0,0,0,10.77-5.09l15.68-17.54,15.25,17.06.61.69.19.2a15.54,15.54,0,0,0,11.16,4.69h48.63a15.5,15.5,0,0,0,11.15-4.69l.11-.1,15.95-17.85,15.62,17.48,0,0a15.67,15.67,0,0,0,11.56,5.12h32.38a15.63,15.63,0,0,0,11.71-26ZM202.78,13.13a3.65,3.65,0,0,1,2.72-1.2h32.38a3.7,3.7,0,0,1,2.79,6.12L207.42,55.24,186.28,31.59Zm-3.36,51.06L178.28,87.84,157.14,64.19l21.14-23.65Zm-100-50.67.49-.55a3.68,3.68,0,0,1,2.57-1h48.63a3.66,3.66,0,0,1,2.56,1l16.65,18.62L148,56.48l-.21.24a2.7,2.7,0,0,1-.28.31v0a3.67,3.67,0,0,1-2.6,1.06H108.58A3.68,3.68,0,0,1,106,57a2.26,2.26,0,0,1-.26-.29L83.23,31.59Zm-3,50.67L75.23,87.84,54.09,64.19,75.23,40.54ZM13,18.18l-.12-.13a3.69,3.69,0,0,1,2.79-6.12H48.3a3.69,3.69,0,0,1,2.41,1.19L67.22,31.59,46.08,55.24Zm37.76,97.09a3.68,3.68,0,0,1-2.42,1.18H15.63a3.69,3.69,0,0,1-2.79-6.11L46.08,73.15,67.22,96.8Zm103.4-.4-.49.55a3.65,3.65,0,0,1-2.56,1H102.44a3.67,3.67,0,0,1-2.57-1L83.23,96.8l22.23-24.88.24-.27a1.83,1.83,0,0,1,.27-.3,3.64,3.64,0,0,1,2.61-1.08h36.35a3.7,3.7,0,0,1,2.58,1l0,0a2.79,2.79,0,0,1,.28.32L170.28,96.8Zm83.76,1.58H205.5a3.66,3.66,0,0,1-2.72-1.2L186.28,96.8l21.14-23.65,33.13,37.06.12.13a3.69,3.69,0,0,1-2.79,6.11Z"/></g></g></svg>